<?xml version="1.0" encoding="UTF-8"?>
<svg id="_レイヤー_2" data-name="レイヤー 2" xmlns="http://www.w3.org/2000/svg" viewBox="0 0 49.14 78.09">
  <defs>
    <style>
      .cls-1 {
        fill: #ed7980;
      }

      .cls-2 {
        fill: #fcfcfc;
      }

      .cls-3 {
        fill: #fff;
      }

      .cls-4 {
        fill: #fedc5e;
      }

      .cls-5 {
        fill: #0054a7;
      }
    </style>
  </defs>
  <g id="_風船" data-name="風船">
    <g>
      <path class="cls-1" d="M13.54,66.41c-.65,2.3.45,4.43,2.46,4.74,2.01.32,4.16-1.29,4.81-3.59.65-2.3-.45-4.43-2.46-4.74-2.01-.32-4.16,1.29-4.81,3.59Z"/>
      <polygon class="cls-1" points="15.29 70.89 16.79 71.13 16.9 71.97 14.74 71.63 15.29 70.89"/>
      <path class="cls-3" d="M20.5,67.13c-.08.56-.23,1.01-.34,1-.11,0-.14-.46-.06-1.02.08-.56.23-1.01.34-1,.11,0,.14.46.06,1.02Z"/>
      <path class="cls-3" d="M20.17,65.4c.01.13.08.23.15.22.07,0,.12-.12.11-.26-.01-.13-.08-.23-.15-.22-.07,0-.12.12-.11.25Z"/>
      <path class="cls-1" d="M8.73,78.09c2.23-.41,4.22-1.43,5.6-2.87,1.38-1.44,1.98-3.13,1.7-4.76l-.17.03c.57,3.29-2.64,6.64-7.15,7.47l.02.13Z"/>
    </g>
    <g>
      <path class="cls-5" d="M.79,25.18c.26,3.16,2.74,5.45,5.55,5.12,2.81-.33,4.88-3.16,4.62-6.32-.26-3.16-2.74-5.45-5.55-5.12-2.81.33-4.88,3.16-4.62,6.31Z"/>
      <polygon class="cls-5" points="5.27 30.23 7.38 29.98 7.93 31 4.9 31.36 5.27 30.23"/>
      <path class="cls-2" d="M10.35,23.55c.17.74.19,1.36.04,1.4-.15.03-.41-.54-.58-1.28-.17-.74-.19-1.36-.04-1.4.15-.03.41.54.58,1.28Z"/>
      <path class="cls-2" d="M9.06,21.48c.08.16.22.26.31.23.09-.04.1-.2.02-.36-.08-.16-.22-.26-.31-.23-.09.04-.1.2-.02.36Z"/>
      <path class="cls-5" d="M.09,41.75c2.75-1.34,4.89-3.36,6.01-5.69,1.12-2.33,1.1-4.69-.06-6.65l-.21.1c2.34,3.96-.27,9.38-5.83,12.09l.09.15Z"/>
    </g>
    <g>
      <path class="cls-4" d="M19.81,5.21c-.69,3.16.99,5.97,3.76,6.27,2.77.3,5.57-2.02,6.26-5.18.69-3.16-.99-5.97-3.76-6.27-2.77-.3-5.57,2.02-6.26,5.18Z"/>
      <polygon class="cls-4" points="22.57 11.16 24.65 11.39 24.87 12.52 21.88 12.19 22.57 11.16"/>
      <path class="cls-2" d="M29.37,5.73c-.06.76-.23,1.38-.38,1.38-.15,0-.23-.62-.17-1.38.06-.76.23-1.38.38-1.38.15,0,.23.62.17,1.38Z"/>
      <path class="cls-2" d="M28.76,3.4c.03.18.13.31.23.29.1-.02.15-.17.13-.35-.03-.18-.13-.31-.23-.29-.1.02-.15.17-.13.35Z"/>
      <path class="cls-4" d="M14.24,21.34c3.01-.7,5.63-2.21,7.39-4.26,1.76-2.04,2.44-4.37,1.92-6.56l-.23.05c1.05,4.42-3.03,9.17-9.11,10.59l.04.17Z"/>
    </g>
    <g>
      <path class="cls-4" d="M38.95,40.86c-.26,3.19,1.8,5.78,4.61,5.8,2.81.02,5.3-2.55,5.57-5.74.26-3.19-1.8-5.78-4.61-5.8-2.81-.02-5.3,2.55-5.57,5.74Z"/>
      <polygon class="cls-4" points="42.52 46.45 44.63 46.47 45 47.56 41.97 47.54 42.52 46.45"/>
      <path class="cls-2" d="M48.59,40.41c.05.76-.04,1.39-.19,1.4-.15.02-.31-.59-.36-1.35-.05-.76.04-1.39.19-1.4.15-.02.31.59.36,1.35Z"/>
      <path class="cls-2" d="M47.67,38.18c.05.17.17.29.27.26.1-.03.13-.19.08-.36-.05-.17-.17-.29-.27-.26-.1.03-.13.19-.08.36Z"/>
      <path class="cls-4" d="M35.55,57.33c2.92-1,5.34-2.75,6.82-4.94,1.48-2.19,1.85-4.55,1.03-6.66l-.23.08c1.65,4.25-1.8,9.34-7.69,11.36l.06.16Z"/>
    </g>
  </g>
</svg>