<?xml version="1.0" encoding="UTF-8"?>
<svg id="_レイヤー_2" data-name="レイヤー 2" xmlns="http://www.w3.org/2000/svg" viewBox="0 0 604.74 97.61">
  <defs>
    <style>
      .cls-1 {
        fill: #fff;
      }

      .cls-2 {
        fill: none;
        stroke: #ecabb7;
        stroke-miterlimit: 10;
        stroke-width: 1.55px;
      }

      .cls-3 {
        fill: #ecabb7;
      }
    </style>
  </defs>
  <g id="_レイヤー_1-2" data-name=" レイヤー 1">
    <g>
      <path d="M93.54,55.07c0,19.55-.1,24.4-5.95,24.4-4.25,0-5.05-1.25-5.05-2.8,0-1.15.7-2.2,1.95-2.2.1,0,.25,0,.4.05.6.1,1.15.2,1.55.2,2.55,0,2.55-2.75,2.55-19.75,0-.4-.2-.4-.45-.4h-4.25c-.25,8.05-1.2,16.65-3.7,23.35-.4,1.1-1.1,1.55-1.8,1.55-1.2,0-2.45-1.3-2.45-2.8,0-.3.05-.65.2-1,2.5-6.45,3.3-15.7,3.3-25.35v-5.85h-1.45c-1.35,0-2.05-1.15-2.05-2.25s.7-2.25,2.05-2.25h4.95v-3.45c0-1.4,1.15-2.05,2.35-2.05s2.3.65,2.3,2.05v3.45h4.85c1.4,0,2.05,1.1,2.05,2.25s-.65,2.25-2.05,2.25h-8.5v5.6h6.2c2,0,3,1,3,3v2h0ZM100.79,43.42c-1.6,2.7-3.3,5-4.4,6.5-.4.55-.9.75-1.4.75-1.2,0-2.45-1.3-2.45-2.65,0-.45.15-.95.5-1.35,1.8-2.25,5.05-6.55,6.35-10.8.3-.95,1.1-1.35,1.95-1.35,1.2,0,2.45.8,2.45,1.95,0,.35-.45,1.55-.8,2.45h15.4c1.4,0,2.05,1.1,2.05,2.25s-.65,2.25-2.05,2.25h-17.6ZM103.09,78.37c-4.2,0-5.75-1.95-5.75-5.5v-15.4l-1.15.3c-.15,0-.25.05-.4.05-1.25,0-1.85-1.05-1.85-2.15s.6-2.2,1.75-2.4l1.65-.45v-3.5c0-1.25,1.15-1.9,2.25-1.9s2.25.65,2.25,1.9v2.35l4.55-1.25v-4.1c0-1.4,1.15-2.05,2.25-2.05s2.25.65,2.25,2.05v2.9l5.15-1.35c.3-.05.6-.1.9-.1,1.9,0,2.95,1.4,2.95,3.7v9.8c0,3.45-.35,5.55-3.9,5.55-3.9,0-4.6-.95-4.6-2.45,0-1.15.65-2.35,1.7-2.35.1,0,.2.05.3.05.45.1.8.15,1.1.15.7,0,.9-.35.9-1.5v-7.3c0-.3-.15-.5-.45-.5h-.1l-3.95,1.05v14.05c0,1.35-1.1,2.05-2.25,2.05s-2.25-.7-2.25-2.05v-12.9l-4.55,1.2v14.75c0,2.1.8,2.8,3,2.8h7.5c3,0,3.45-.35,4.25-4.3.25-1.25,1.1-1.75,2-1.75,1.3,0,2.7,1,2.7,2.6,0,.15,0,.3-.05.5-1.1,6.25-3.8,7.45-7.2,7.45h-10.95,0Z"/>
      <path d="M128.29,47.17c-1.3,0-2-1.05-2-2.15s.7-2.1,2-2.1h14.65c1.35,0,2,1.05,2,2.1s-.65,2.15-2,2.15h-14.65ZM130.44,78.57c-1.95,0-2.9-.95-2.9-2.9v-8.85c0-1.95.95-2.9,2.9-2.9h9.85c1.95,0,2.9.95,2.9,2.9v8.85c0,1.95-.95,2.9-2.9,2.9h-9.85ZM129.79,40.17c-1.3,0-2-1.05-2-2.15s.7-2.1,2-2.1h11.45c1.35,0,2,1.05,2,2.1s-.65,2.15-2,2.15h-11.45ZM129.79,61.17c-1.3,0-2-1.05-2-2.15s.7-2.1,2-2.1h11.45c1.35,0,2,1.05,2,2.1s-.65,2.15-2,2.15h-11.45ZM129.84,54.17c-1.3,0-2-1.05-2-2.15s.7-2.1,2-2.1h11.4c1.35,0,2,1.05,2,2.1s-.65,2.15-2,2.15h-11.4ZM138.69,68.72c0-.4-.2-.6-.6-.6h-5.4c-.4,0-.6.2-.6.6v5.05c0,.4.2.6.6.6h5.4c.4,0,.6-.2.6-.6v-5.05ZM164.34,53.02c-2.5,0-3.65-1.45-3.65-4.25v-8c0-.3-.1-.35-.5-.35h-6.8c-.3,0-.4.1-.4.4-.2,5.85-1.3,9.75-5.6,12.5-.4.25-.8.35-1.2.35-1.35,0-2.55-1.3-2.55-2.6,0-.65.3-1.25,1-1.75,3.25-2.2,3.8-4.1,3.8-10.5,0-1.9,1.1-2.9,3-2.9h10.75c2,0,3,1,3,3v8.6c0,.7.15,1,.7,1,.8,0,1.05-.7,1.35-5.35.1-1.3.95-1.9,1.9-1.9,1.1,0,2.25.85,2.25,2.3v.25c-.7,6.6-1.2,9.2-4.65,9.2h-2.4ZM164.24,59.72c0-.2-.1-.35-.4-.35h-17.65c-1.35,0-2.05-1.15-2.05-2.25s.7-2.25,2.05-2.25h19.1c2.55,0,3.9,1.35,3.9,3.5s-2.65,9.45-7.3,13.8c2.2.95,4.7,1.75,7.7,2.5,1.25.3,1.8,1.25,1.8,2.2,0,1.25-.95,2.55-2.45,2.55-.95,0-6.55-1.55-11.05-4.25-3.1,1.85-6.9,3.2-11.55,4.25-.1.05-.25.05-.35.05-1.25,0-2.3-1.55-2.3-2.9,0-.8.4-1.55,1.45-1.75,3.45-.7,6.3-1.5,8.6-2.55-4.15-3.55-6.95-8.75-6.95-10s1.25-2.15,2.45-2.15c.6,0,1.2.25,1.55.9,2.05,4,4.25,6.75,7.1,8.85,3.25-2.45,5.05-5.7,6.35-10v-.15h0Z"/>
      <path d="M196.34,46.07c0-.25-.1-.45-.55-.45h-9.05c-1.55,3.85-3.45,7.4-6,10.75-.35.45-.85.65-1.4.65-1.35,0-2.95-1.35-2.95-2.8,0-.45.15-.9.45-1.3,3.8-5.35,6-10.1,7.7-16.85.25-1.05,1.25-1.5,2.3-1.5,1.3,0,2.75.75,2.75,2.1,0,.2-.05.4-.1.6l-1.05,3.6h9.05c2.6,0,3.9,2,3.9,4.2,0,.25,0,.45-.05.7-2,16.85-8.1,25.75-21.1,32.8-.45.25-.9.35-1.25.35-1.55,0-2.6-1.6-2.6-3.1,0-.9.35-1.8,1.3-2.25,6-2.95,10.25-6.5,13.15-10.75-3.05-2.65-4.3-3.65-6.8-5.35-.6-.45-.85-1-.85-1.6,0-1.4,1.3-2.85,2.65-2.85.3,0,1.45.05,7.45,5.5,1.65-3.65,2.6-7.75,3.05-12.3v-.15h0ZM209.99,56.82c-2.75-3.75-5.35-7.7-7.6-11.5-.2-.35-.3-.75-.3-1.1,0-1.4,1.25-2.75,2.45-2.75.45,0,.9.2,1.25.8,1.4,2.55,2.8,4.75,4.2,6.85v-12.65c0-1.4,1.2-2.05,2.35-2.05s2.35.65,2.35,2.05v18.85c1.75,2.15,3.7,4.3,5.95,6.6.55.55.8,1.2.8,1.8,0,1.35-1.2,2.6-2.5,2.6-1,0-1.6-.5-4.25-3.6v14.75c0,1.4-1.15,2.05-2.35,2.05s-2.35-.65-2.35-2.05v-20.65h0Z"/>
      <path d="M228.99,76.27c-1.2,0-2.6-1.2-2.6-2.55,0-.4.1-.75.35-1.15,1.65-2.4,2.95-6,3.7-9.5.2-.9.9-1.3,1.7-1.3,1.1,0,2.35.8,2.35,2s-2,7.8-4.25,11.75c-.3.55-.75.75-1.25.75h0ZM228.49,42.17c-1.25,0-1.9-1.15-1.9-2.25s.65-2.25,1.9-2.25h7.85v-1.6c0-1.05,1.15-1.6,2.35-1.6s2.35.55,2.35,1.6v1.6h8.65c1.25,0,1.9,1.1,1.9,2.25s-.65,2.25-1.9,2.25h-21.2,0ZM236.59,60.22h-4.95c-2.25,0-3.35-1.2-3.35-3.6v-8c0-2.4,1.1-3.6,3.35-3.6h14.8c2.2,0,3.3,1.2,3.3,3.6v8c0,2.4-1.1,3.6-3.3,3.6h-5.35v14.35c0,3.5-.95,4.85-4.9,4.85-3,0-5,0-5-2.65,0-1.15.6-2.25,1.7-2.25.1,0,.2.05.35.05,1.25.25,2,.4,2.5.4.75,0,.85-.35.85-1.1v-13.65h0ZM245.49,50.27c0-.5-.2-.75-.65-.75h-11.65c-.5,0-.75.25-.75.75v4.7c0,.5.25.75.75.75h11.65c.45,0,.65-.25.65-.75v-4.7ZM245.94,71.17c-1.05-2.55-2.15-4.65-3.35-6.5-.2-.3-.25-.6-.25-.9,0-1.1,1.15-2.15,2.2-2.15.5,0,1,.25,1.4.8,1.6,2.4,3.95,5.9,3.95,7.5,0,1.45-1.15,2.5-2.3,2.5-.65,0-1.3-.4-1.65-1.25h0ZM260.04,49.62c-.35,11.8-2.45,21.4-10.05,29.25-.45.45-.95.65-1.45.65-1.35,0-2.7-1.2-2.7-2.65,0-.7.3-1.45,1.05-2.15,6.45-6.15,8.35-14.05,8.7-25.1h-3.65c-1.35,0-2.05-1.15-2.05-2.25s.7-2.25,2.05-2.25h3.7v-8.6c0-1.4,1.1-2.05,2.25-2.05s2.2.65,2.2,2.05v8.6h8.6c1.4,0,2.05,1.1,2.05,2.25s-.65,2.25-2.05,2.25h-8.65,0ZM264.14,78.92c-2.6,0-4.3-1.35-4.3-4.8v-17.35c0-1.4,1.1-2.05,2.25-2.05s2.2.65,2.2,2.05v16.6c0,.75.2,1.15.7,1.15h.45c1.35,0,1.4-.7,1.6-6.45.05-1.3.85-1.85,1.75-1.85,1.2,0,2.6,1,2.6,2.5v.15c-.45,9.75-2.3,10.05-5.3,10.05h-1.95ZM267.74,44.07c-.55,0-1.1-.2-1.5-.75-1.1-1.4-2.85-3.35-4.15-4.6-.4-.35-.55-.8-.55-1.2,0-1.1,1.15-2.2,2.4-2.2.45,0,.95.15,1.35.5,4.75,4.15,4.95,5.1,4.95,5.75,0,1.3-1.25,2.5-2.5,2.5h0Z"/>
      <path d="M315.34,52.02c0-.5-.55-.9-1.05-.9h-31.05c-.5,0-.75.4-.75.9v4.55c0,1.25-1.35,1.85-2.7,1.85s-2.7-.6-2.7-1.85v-6.4c0-2.4,1.55-3.85,4.1-3.85h35.4c2.55,0,4.1,1.45,4.1,3.85v6.7c0,1.2-1.35,1.85-2.65,1.85s-2.7-.65-2.7-1.85v-4.85h0ZM317.74,63.77c0,11.95-2.5,15.6-8.15,15.6-1.8,0-3.95-.4-6.4-1-1.1-.25-1.65-1.45-1.65-2.6,0-1.35.7-2.65,2.1-2.65.2,0,.45.05.7.1,1.65.45,3,.75,4.1.75,2.85,0,3.95-2.1,3.95-9.9v-.5c0-.45-.25-.7-.6-.7h-13.85c-1.8,9.5-7.65,14.9-17.85,16.5-.2.05-.4.05-.55.05-1.65,0-2.4-1.5-2.4-2.85,0-1.1.55-2.2,1.5-2.35,8.8-1.25,12.75-4.95,14.05-11.35h-9.8c-1.35,0-2.05-1.2-2.05-2.45s.7-2.4,2.05-2.4h10.4c.1-.7.3-2.55.3-3.7.05-1.35,1.4-2,2.7-2s2.55.65,2.55,1.95v.15c-.05,1.2-.15,2.4-.3,3.6h15.3c2.4,0,3.85,1.7,3.9,4v1.75h0ZM284.84,45.77c-.65,0-1.2-.3-1.6-.95-1.4-2.3-2.55-3.9-4.15-5.85-.35-.4-.5-.8-.5-1.25,0-1.4,1.6-2.75,3.05-2.75.65,0,1.25.25,1.75.85,1.1,1.35,4.4,5.65,4.4,7.1s-1.55,2.85-2.95,2.85ZM298.84,45.32c-.85,0-1.65-.35-2-1.3-.8-2.25-1.6-4.2-2.6-6.2-.15-.35-.25-.65-.25-.95,0-1.4,1.45-2.35,2.9-2.35.9,0,1.8.4,2.25,1.35s2.7,5.75,2.7,7c0,1.4-1.6,2.45-3,2.45h0ZM311.64,45.82c-1.55,0-3.2-1.45-3.2-2.9,0-.5.2-1,.65-1.45,2-2.05,2.95-3.35,4.6-5.8.4-.65,1.05-.9,1.75-.9,1.5,0,3.15,1.2,3.15,2.65,0,1.55-4.4,6.8-5.45,7.8-.45.4-.95.6-1.5.6Z"/>
      <path d="M329.69,45.17c-1.8,0-2.7-1.35-2.7-2.65s.8-2.45,2.3-2.55c9.85-.65,21.3-1.3,38.95-1.45,1.7,0,2.7,1.4,2.7,2.8,0,1.25-.8,2.5-2.45,2.7-18.65,2.45-28.75,12.3-28.75,20.25,0,5.3,4.45,9.6,14.35,9.6,2.2,0,4.7-.25,7.45-.7.2-.05.35-.05.55-.05,1.65,0,2.6,1.35,2.6,2.7,0,1.25-.75,2.45-2.45,2.75-3.15.55-6,.85-8.55.85-13.4,0-19.25-7.15-19.25-14.8,0-9.7,9-17.7,19.65-21.1-9.15.45-16.75,1-24.1,1.65h-.3ZM361.09,59.12c-.55,0-1.1-.25-1.5-.85-1.15-1.85-2.55-3.75-3.75-5.05-.3-.35-.45-.75-.45-1.1,0-.95.9-1.8,1.85-1.8.45,0,.95.2,1.35.65,1.95,2.05,4.5,5.2,4.5,6.25s-1,1.9-2,1.9h0ZM365.79,55.97c-.5,0-1-.25-1.4-.8-1.1-1.6-2.4-3.2-3.55-4.35-.4-.4-.6-.8-.6-1.2,0-.9.85-1.65,1.8-1.65.45,0,.9.2,1.3.55,1.2,1.2,4.25,4.4,4.25,5.7,0,.95-.85,1.75-1.8,1.75Z"/>
      <path d="M422.14,58.32c-.25,11.4-7.45,18.6-18.65,20.3-.2.05-.4.05-.6.05-1.95,0-3.05-1.5-3.05-2.9,0-1.1.65-2.15,2.15-2.35,10.55-1.7,14.7-8.05,14.9-14.8v-.5c0-7.75-4.7-13.05-11.75-14.3-2.7,14.2-8.15,24.75-16.1,30.5-1.35,1-2.85,1.5-4.4,1.5-2.75,0-8.9-2.25-8.9-12.9,0-14,11.8-23.9,26.35-23.9,10.85,0,20.05,6.9,20.05,18.75v.55ZM380.64,63.22c0,.3.05.65.05,1,.25,3.4,1.85,5.95,4,5.95,3.8,0,12.15-10.25,15.45-26.55-11.65.9-19.5,9.5-19.5,19.6h0Z"/>
      <path d="M450.19,73.17c1.25.15,2.45.25,3.55.25,7.7,0,11.25-3.7,11.25-8.5,0-5.7-5.3-8.2-13.1-8.2-2.45,0-4.8.35-6.95.95v12.5c0,6.75-2.1,8.4-7.45,8.4s-10-4-10-9.3c0-6.6,5.45-11.85,12.5-14.65l-.05-8.3c-1.6.05-3.2.05-4.75.05s-3,0-4.45-.05c-1.35-.05-2.05-1.25-2.05-2.45s.7-2.4,1.95-2.4h.1c2.1.05,4.4.1,6.65.1h2.55v-4.45c0-1.35,1.25-2.05,2.5-2.05s2.5.7,2.5,2.05v4.3c3.2-.1,6.35-.35,9.1-.7h.3c1.4,0,2.1,1.25,2.1,2.45,0,1.1-.6,2.25-1.8,2.35-2.8.25-6.15.45-9.7.6v6.95c2.3-.5,4.7-.8,7.05-.8,10.2,0,18.05,3.75,18.05,12.65s-6.75,13.6-16.1,13.6c-4.25,0-6.2-.15-6.2-2.8,0-1.25.75-2.55,2.15-2.55h.3ZM439.99,59.62c-4.55,2.4-7.55,6.05-7.55,9.4,0,2.55,2.55,4.2,4.7,4.2s2.9-.3,2.9-3.1l-.05-10.5h0ZM467.69,51.07c-2.3-3.25-5.65-6.4-8.45-8.35-.65-.45-.9-1.05-.9-1.65,0-1.25,1.2-2.55,2.6-2.55.5,0,1,.15,1.5.5,2.85,2.05,6.6,5.4,9.15,8.7.4.5.55,1.05.55,1.55,0,1.5-1.35,2.8-2.7,2.8-.6,0-1.25-.3-1.75-1h0Z"/>
      <path d="M481.69,53.32c-1.35,1.95-2.15,2.5-2.95,2.5-1.2,0-2.3-1.25-2.3-2.5,0-.45.15-.9.45-1.3,2.85-3.6,6.1-9.75,7.45-16,.25-1.05,1.15-1.55,2.1-1.55,1.15,0,2.35.75,2.35,1.95,0,.15,0,.3-.05.45-.45,2.25-1.2,4.55-2.05,6.85v33.6c0,1.5-1.25,2.25-2.45,2.25-1.3,0-2.55-.75-2.55-2.25v-24h0ZM492.69,77.62c-1.35,0-2.05-1.2-2.05-2.45s.7-2.4,2.05-2.4h9.95v-23.15h-11.75c-1.35,0-2.05-1.2-2.05-2.4s.7-2.4,2.05-2.4h11.75v-8.05c0-1.55,1.35-2.35,2.7-2.35s2.6.8,2.6,2.35v8.05h11.4c1.4,0,2.05,1.2,2.05,2.4s-.65,2.4-2.05,2.4h-11.4v23.15h9.65c1.4,0,2.05,1.2,2.05,2.4s-.65,2.45-2.05,2.45h-24.9Z"/>
      <path d="M551.19,72.17c-.1,5.25-1.3,7.3-5.85,7.3-1.35,0-3-.15-5.05-.5-1.3-.2-1.9-1.25-1.9-2.3,0-1.2.75-2.45,2.05-2.45.15,0,.25,0,.4.05,1.6.3,2.75.5,3.55.5,1.45,0,1.8-.65,1.9-2.6h-16.05c-1.25,0-1.85-.95-1.85-1.95s.6-1.9,1.85-1.9h16.1v-2.75h-18.25c-1.15,0-1.7-.95-1.7-1.85,0-.95.55-1.85,1.7-1.85h18.25v-2.55h-16.2c-1.25,0-1.85-.95-1.85-1.95s.6-1.9,1.85-1.9h16.2v-2.35h-13.6c-1.95,0-2.9-.95-2.9-2.9v-4.1c0-1.95.95-2.9,2.9-2.9h13.6v-2.4h-17.25c-1.35,0-2.05-1.05-2.05-2.1s.7-2.05,2.05-2.05h17.25v-.65c0-1.2,1.2-1.8,2.45-1.8s2.4.6,2.4,1.8v.65h17.45c1.4,0,2.05,1.05,2.05,2.05,0,1.05-.65,2.1-2.05,2.1h-17.45v2.4h14.15c1.95,0,2.9.95,2.9,2.9v4.1c0,1.95-.95,2.9-2.9,2.9h-14.15v2.35h14.45c2.4,0,3.6,1.2,3.6,3.6v2.8h.45c1.15,0,1.7.95,1.7,1.85,0,.95-.55,1.85-1.7,1.85h-.45v3c0,2.4-1.2,3.6-3.6,3.6h-14.45ZM546.34,46.77h-11.5c-.4,0-.6.2-.6.6v1.6c0,.4.2.6.6.6h11.5v-2.8h0ZM563.84,47.37c0-.4-.2-.6-.6-.6h-12.05v2.8h12.05c.4,0,.6-.2.6-.6v-1.6h0ZM564.84,60.07c0-.5-.25-.75-.75-.75h-12.9v2.55h13.65v-1.8ZM564.84,65.57h-13.65v2.7h12.9c.5,0,.75-.25.75-.75v-1.95Z"/>
    </g>
    <g>
      <path class="cls-2" d="M604.72,85.96c-62.2,1.1-63.99,6.66-135.37,5.64-82.1-1.18-99-8.79-166.32-4.33-57.51,3.81-86.38,5.95-86.38,5.95-40.4,3-52.42,4.19-73.91,3.35-38.86-1.52-63.34-7.94-71.66-10.28-12.56-3.54-22.27-7.38-28.9-10.3"/>
      <g>
        <path class="cls-3" d="M3.51,51.79c7.86,18.36,26.39,26.44,41.37,18.04,14.98-8.4,20.76-30.1,12.89-48.47C49.92,3,31.39-5.08,16.41,3.32,1.43,11.73-4.35,33.42,3.51,51.79h0Z"/>
        <path class="cls-3" d="M34.55,69.43c3.17-.99,6.34-1.98,9.51-2.97,2.5,2.9,5,5.79,7.51,8.69l-17.73,5.54.72-11.26h-.01Z"/>
        <path class="cls-1" d="M54.58,20.21c.84,1.62,1.16,2.66,1.78,4.67.48,1.56.64,2.38.19,2.95-.18.23-.53.47-.87.43-.53-.06-.74-.86-1.19-2.19,0,0-.59-1.71-1.15-3.08-.64-1.56-1.26-2.66-1.52-3.1-.18-.31-.61-1.02-1.24-1.89-.87-1.21-1.31-1.81-1.81-2.31-.69-.68-1.22-1.02-1.18-1.56.02-.26.17-.55.42-.71.32-.21.7-.13.86-.1,1.52.32,3.67,3.55,3.95,3.97.74,1.13,1.2,1.83,1.76,2.9v.02h0Z"/>
        <path class="cls-1" d="M44.66,11.51c.78.79,1.74,1.07,2.14.63.4-.44.09-1.43-.69-2.22s-1.74-1.08-2.14-.63c-.4.44-.09,1.43.69,2.22Z"/>
      </g>
    </g>
  </g>
</svg>